<svg width="26" height="27" viewBox="0 0 26 27" fill="none" xmlns="http://www.w3.org/2000/svg">
<path d="M0 0.5H26V26.5H0V0.5Z" fill="black"/>
<g clip-path="url(#clip0_2_21)">
<path d="M15.4 15.4L10.6 10.6M22.5 22.5L21.1 21.1M4.90001 4.90001L3.50001 3.50001M19.657 22.485C19.282 22.8602 18.7733 23.071 18.2429 23.0711C17.7124 23.0712 17.2037 22.8605 16.8285 22.4855C16.4534 22.1105 16.2425 21.6018 16.2425 21.0714C16.2424 20.5409 16.453 20.0322 16.828 19.657L15.061 21.425C14.6859 21.8002 14.177 22.0109 13.6465 22.0109C13.116 22.0109 12.6072 21.8002 12.232 21.425C11.8569 21.0499 11.6461 20.541 11.6461 20.0105C11.6461 19.48 11.8569 18.9712 12.232 18.596L18.596 12.232C18.9712 11.8569 19.48 11.6461 20.0105 11.6461C20.541 11.6461 21.0499 11.8569 21.425 12.232C21.8002 12.6072 22.0109 13.116 22.0109 13.6465C22.0109 14.177 21.8002 14.6859 21.425 15.061L19.657 16.828C20.0322 16.453 20.5409 16.2424 21.0714 16.2425C21.6018 16.2425 22.1105 16.4534 22.4855 16.8285C22.8605 17.2037 23.0712 17.7124 23.0711 18.2429C23.071 18.7733 22.8602 19.282 22.485 19.657L19.657 22.485ZM7.40401 13.768C7.02886 14.1432 6.52005 14.3539 5.98951 14.3539C5.45897 14.3539 4.95016 14.1432 4.57501 13.768C4.19986 13.3929 3.9891 12.884 3.9891 12.3535C3.9891 11.823 4.19986 11.3142 4.57501 10.939L6.34301 9.17201C6.15725 9.3577 5.93674 9.50498 5.69407 9.60545C5.45139 9.70592 5.1913 9.7576 4.92865 9.75756C4.39821 9.75746 3.88952 9.54666 3.51451 9.17151C3.32882 8.98575 3.18153 8.76524 3.08106 8.52257C2.9806 8.27989 2.92891 8.0198 2.92896 7.75715C2.92905 7.22671 3.13986 6.71802 3.51501 6.34301L6.34301 3.51501C6.71802 3.13986 7.22671 2.92905 7.75715 2.92896C8.0198 2.92891 8.27989 2.9806 8.52257 3.08106C8.76524 3.18153 8.98575 3.32882 9.17151 3.51451C9.35726 3.7002 9.50462 3.92065 9.60518 4.16329C9.70573 4.40593 9.75751 4.666 9.75756 4.92865C9.7576 5.1913 9.70592 5.45139 9.60545 5.69407C9.50498 5.93674 9.3577 6.15725 9.17201 6.34301L10.939 4.57501C11.3142 4.19986 11.823 3.9891 12.3535 3.9891C12.884 3.9891 13.3929 4.19986 13.768 4.57501C14.1432 4.95016 14.3539 5.45897 14.3539 5.98951C14.3539 6.52005 14.1432 7.02886 13.768 7.40401L7.40401 13.768Z" stroke="white" stroke-width="2" stroke-linecap="round" stroke-linejoin="round"/>
</g>
<defs>
<clipPath id="clip0_2_21">
<rect width="24" height="24" fill="white" transform="translate(1 1)"/>
</clipPath>
</defs>
</svg>
